<svg width="18" height="18" viewBox="0 0 18 18" fill="none" xmlns="http://www.w3.org/2000/svg">
<path d="M5.48065 12.0138L0.766602 16.7279M8.24539 4.53507L6.94465 5.83581C6.83854 5.94191 6.78549 5.99496 6.72505 6.03712C6.6714 6.07453 6.61353 6.10551 6.55264 6.12939C6.48404 6.1563 6.41047 6.17101 6.26333 6.20044L3.20961 6.81118C2.41602 6.9699 2.01923 7.04926 1.83359 7.25847C1.67187 7.44073 1.59802 7.68464 1.63148 7.92599C1.66989 8.20304 1.95602 8.48917 2.52829 9.06143L8.43307 14.9662C9.00533 15.5385 9.29146 15.8246 9.56851 15.863C9.80986 15.8965 10.0538 15.8226 10.236 15.6609C10.4452 15.4753 10.5246 15.0785 10.6833 14.2849L11.2941 11.2312C11.3235 11.084 11.3382 11.0105 11.3651 10.9419C11.389 10.881 11.42 10.8231 11.4574 10.7695C11.4995 10.709 11.5526 10.656 11.6587 10.5499L12.9594 9.24911C13.0273 9.18128 13.0612 9.14736 13.0985 9.11774C13.1316 9.09143 13.1667 9.06769 13.2034 9.0467C13.2447 9.02308 13.2888 9.00419 13.377 8.9664L15.4556 8.07555C16.0621 7.81566 16.3653 7.68572 16.503 7.47573C16.6234 7.2921 16.6665 7.06835 16.6229 6.85312C16.573 6.607 16.3398 6.37374 15.8732 5.90722L11.5873 1.62127C11.1208 1.15475 10.8875 0.921489 10.6414 0.871596C10.4262 0.827966 10.2024 0.871056 10.0188 0.991499C9.80879 1.12923 9.67884 1.43244 9.41895 2.03886L8.5281 4.11749C8.49031 4.20567 8.47142 4.24976 8.4478 4.2911C8.42682 4.32783 8.40307 4.36291 8.37676 4.39603C8.34714 4.43331 8.31322 4.46723 8.24539 4.53507Z" stroke="#852C28" stroke-width="1.5" stroke-linecap="round" stroke-linejoin="round"/>
</svg>
